<svg width="100" height="100" viewBox="0 0 100 100" fill="none" xmlns="http://www.w3.org/2000/svg">
<circle cx="50" cy="50" r="50" fill="#128AF9"/>
<path d="M76.6667 26.6665H23.3333C22.4129 26.6665 21.5795 27.0396 20.9763 27.6428C20.3731 28.246 20 29.0794 20 29.9998V69.9998C20 71.8408 21.4924 73.3332 23.3333 73.3332H76.6667C78.5077 73.3332 80 71.8408 80 69.9998V29.9998C80 29.0794 79.627 28.246 79.0237 27.6428C78.4203 27.0396 77.587 26.6665 76.6667 26.6665Z" fill="white" stroke="black" stroke-width="3" stroke-linecap="round" stroke-linejoin="round"/>
<path d="M20.9763 27.6426L45.286 51.9521C47.8893 54.5557 52.1107 54.5557 54.714 51.9521L79.0237 27.6426" fill="white"/>
<path d="M20.9763 27.6426L45.286 51.9521C47.8893 54.5557 52.1107 54.5557 54.714 51.9521L79.0237 27.6426" stroke="black" stroke-width="3" stroke-linecap="round" stroke-linejoin="round"/>
</svg>
